<?xml version="1.0" encoding="UTF-8" standalone="no"?>
<!-- Created with Inkscape (http://www.inkscape.org/) -->

<svg
   width="142.67879mm"
   height="143.11577mm"
   viewBox="0 0 142.67879 143.11577"
   version="1.1"
   id="svg1"
   xml:space="preserve"
   xmlns="http://www.w3.org/2000/svg"
   xmlns:svg="http://www.w3.org/2000/svg"><defs
     id="defs1"><rect
       x="-778.26489"
       y="-173.2588"
       width="227.93159"
       height="237.60944"
       id="rect84" /><rect
       x="-778.26489"
       y="-173.2588"
       width="227.93159"
       height="237.60944"
       id="rect84-6" /><rect
       x="-778.26489"
       y="-173.2588"
       width="227.93159"
       height="237.60944"
       id="rect84-6-2" /></defs><g
     id="layer1"
     style="display:inline"
     transform="translate(205.54564,94.425823)"><path
       style="fill:#fdae16;fill-opacity:1;stroke-width:0.264583"
       d="m -158.17471,-38.292481 c 8.61289,12.16281 3.43351,26.88621 3.43351,26.88621 20.07738,12.6283705 36.8958,-0.98932 36.8958,-0.98932 0,0 13.21033,-10.067779 8.67109,-22.405176 -4.53922,-12.337393 -14.7234,-9.718608 -14.7234,-9.718608 0,0 -1.2803,-0.290976 3.14256,2.386007 4.42283,2.676983 3.60809,10.30056 3.60809,10.30056 0,0 -2.15323,10.649733 -14.02506,11.406272 -11.87182,0.756539 -19.02983,-9.776804 -19.02983,-9.776804 0,0 -11.89604,-16.794963 0.11984,-32.925866 12.01588,-16.130903 25.18396,-17.036209 25.18396,-17.036209 0,0 9.29996,-4.032726 25.760066,1.152207 16.4601,5.184933 31.1919,22.879547 31.1919,22.879547 0,0 -2.13982,-18.353018 -20.98664,-29.62819 -18.846816,-11.275173 -38.352036,-8.312354 -38.352036,-8.312354 0,0 -21.56274,2.551317 -34.73082,16.213205 -13.16809,13.661887 -12.59199,28.311381 -12.59199,28.311381 0,0 12.45538,3.749756 16.43296,11.257138 z"
       id="path82" /><path
       style="fill:#fdae16;fill-opacity:1;stroke-width:0.264583"
       d="m -96.703117,-16.295504 c 0,0 9.053057,-24.690158 -8.723853,-35.636129 -17.77692,-10.945968 -28.22908,3.538924 -28.22908,3.538924 0,0 -3.29202,4.032726 -1.64602,10.369867 1.64602,6.337139 5.67874,6.501741 5.67874,6.501741 0,0 -5.67874,2.139813 -11.93357,-5.596437 -6.25484,-7.736247 2.05751,-19.422922 2.05751,-19.422922 0,0 12.75658,-18.43532 38.59895,-6.913245 25.842361,11.522072 22.221136,42.38477 22.221136,42.38477 l -0.411501,4.361928 c 0,0 -10.122966,-2.880518 -17.612312,0.411503 z"
       id="path83" /><circle
       style="mix-blend-mode:normal;fill:#aa0000;fill-opacity:1;stroke-width:0.28353"
       id="path84"
       cx="-181.16183"
       cy="-21.765028"
       r="24.383814" /><circle
       style="display:inline;mix-blend-mode:normal;fill:#008000;fill-opacity:1;stroke-width:0.28353"
       id="path84-1"
       cx="-148.81401"
       cy="24.306124"
       r="24.383814" /><ellipse
       style="display:inline;mix-blend-mode:normal;fill:#fdae16;fill-opacity:1;stroke-width:0.295691"
       id="path84-5"
       cx="-88.00721"
       cy="11.70331"
       rx="25.140352"
       ry="25.722305" /><text
       xml:space="preserve"
       transform="matrix(0.26458333,0,0,0.26458333,-5.8195261,2.7933725)"
       id="text84"
       style="font-size:66.6667px;text-align:center;writing-mode:lr-tb;direction:ltr;white-space:pre;shape-inside:url(#rect84);shape-padding:41.3507;fill:#ffffff;fill-opacity:1"
       x="36.246765"
       y="0"><tspan
         x="-706.68264"
         y="-71.08615"
         id="tspan3">14</tspan></text><text
       xml:space="preserve"
       transform="matrix(0.26458333,0,0,0.26458333,27.321582,50.53222)"
       id="text84-4"
       style="font-size:66.6667px;text-align:center;writing-mode:lr-tb;direction:ltr;white-space:pre;shape-inside:url(#rect84-6);shape-padding:41.3507;display:inline;fill:#ffffff;fill-opacity:1"
       x="36.246765"
       y="0"><tspan
         x="-706.68264"
         y="-71.08615"
         id="tspan4">18</tspan></text><text
       xml:space="preserve"
       transform="matrix(0.26458333,0,0,0.26458333,87.39187,37.380018)"
       id="text84-4-1"
       style="font-size:66.6667px;text-align:center;writing-mode:lr-tb;direction:ltr;white-space:pre;shape-inside:url(#rect84-6-2);shape-padding:41.3507;display:inline;fill:#ffffff;fill-opacity:1"
       x="36.246765"
       y="0"><tspan
         x="-685.49122"
         y="-71.08615"
         id="tspan5">9</tspan></text></g></svg>
